Coordinates
version=1
nRows=21
nColumns=19
inDegrees=yes

Units are S.I. units (second, meters, Newtons, ...)
If the header above contains a line with 'inDegrees', this indicates whether rotational values are in degrees (yes) or radians (no).

endheader
time	pelvis_tilt	pelvis_list	pelvis_rotation	pelvis_tx	pelvis_ty	pelvis_tz	hip_flexion_r	hip_adduction_r	hip_rotation_r	knee_angle_r	knee_angle_r_beta	ankle_angle_r	hip_flexion_l	hip_adduction_l	hip_rotation_l	knee_angle_l	knee_angle_l_beta	ankle_angle_l
     11.50000000	     -5.28329192	     -4.11756917	      1.51499463	      2.24207565	      1.01466260	      1.06860785	     23.85658755	      5.68743809	     -6.04366304	     13.95932050	      0.24363610	      3.93226422	     -8.42927418	     -5.90936534	     -4.24248044	     46.70527114	      0.81516076	    -17.01889657
     11.50666667	     -4.30679461	     -4.52161196	      1.24664260	      2.24192000	      1.01129442	      1.06951478	     22.83915540	      6.17434168	     -6.50215417	     15.65827291	      0.27328842	      3.73677707	     -8.54794935	     -6.42865457	     -4.08519680	     49.94472670	      0.87169992	    -16.50739739
     11.51333333	     -4.21120177	     -4.74550032	      1.08043972	      2.24139603	      1.00663480	      1.07043967	     22.97451066	      6.34854334	     -7.08448215	     17.79030942	      0.31049947	      3.76052270	     -7.47110820	     -6.78446580	     -3.73689748	     53.46712267	      0.93317733	    -15.92413669
     11.52000000	     -3.67618486	     -5.09625767	      0.81656206	      2.24087140	      1.00222120	      1.07142116	     22.65558343	      6.71431616	     -7.44167382	     19.98827529	      0.34886122	      3.95779872	     -6.93605279	     -7.29087690	     -3.62248591	     56.81077310	      0.99153504	    -15.42450987
     11.52666667	     -3.42123321	     -5.43208828	      0.51389823	      2.24011109	      0.99728901	      1.07252036	     22.77005795	      7.05883658	     -7.67355175	     22.44214268	      0.39168928	      4.43330444	     -6.01293645	     -7.80868206	     -3.54217442	     60.19178426	      1.05054482	    -14.90091441
     11.53333333	     -2.63894060	     -5.91390921	      0.19632238	      2.23937814	      0.99285173	      1.07363190	     22.27707769	      7.59604027	     -7.79523541	     24.83608987	      0.43347154	      5.20622707	     -5.72163145	     -8.55838289	     -3.67747800	     63.36743188	      1.10597032	    -14.37368820
     11.54000000	     -3.10532110	     -6.10174392	     -0.11034356	      2.23804815	      0.98678018	      1.07477515	     23.42495544	      7.72961467	     -7.95786649	     27.77480489	      0.48476179	      6.26729855	     -3.79584740	     -8.95972729	     -3.48681783	     66.80425943	      1.16595428	    -13.79307021
     11.54666667	     -3.01509419	     -6.41330716	     -0.41005121	      2.23672874	      0.98133014	      1.07587157	     23.86982913	      8.04068309	     -8.01956223	     30.53696470	      0.53297058	      7.64244861	     -2.52343467	     -9.57216130	     -3.47472210	     70.00451168	      1.22180922	    -13.19343213
     11.55333333	     -2.95286559	     -6.71077685	     -0.67415708	      2.23524127	      0.97586444	      1.07687903	     24.30995051	      8.33136259	     -8.05779384	     33.24256595	      0.58019223	      9.16126338	     -1.15495334	    -10.19641432	     -3.41323189	     73.10667409	      1.27595217	    -12.53085588
     11.56000000	     -2.88508545	     -6.97879482	     -0.89774388	      2.23358921	      0.97052711	      1.07773183	     24.66960231	      8.59162450	     -8.05855440	     35.82754030	      0.62530854	     10.84015809	      0.27837746	    -10.79182617	     -3.28748643	     76.08552192	      1.32794287	    -11.79633369
     11.56666667	     -2.85774724	     -7.20639879	     -1.07124760	      2.23172690	      0.96530592	      1.07844962	     24.96010229	      8.81338362	     -8.02455178	     38.22031264	      0.66707030	     12.62807250	      1.84787647	    -11.35300725	     -3.08566338	     78.93974401	      1.37775844	    -11.06240204
     11.57333333	     -2.74414386	     -7.42532859	     -1.19370348	      2.22974942	      0.96041701	      1.07900555	     24.99869763	      9.02936066	     -7.98027844	     40.34324813	      0.70412251	     14.43056933	      3.39282663	    -11.89302117	     -2.81790081	     81.62683257	      1.42465699	    -10.28755527
     11.58000000	     -2.64700894	     -7.60345319	     -1.27390609	      2.22757919	      0.95585478	      1.07938296	     24.89165725	      9.21052900	     -7.90114646	     42.17898731	      0.73616220	     16.18835308	      5.04256178	    -12.35880306	     -2.46685623	     84.13810970	      1.46848704	     -9.51248500
     11.58666667	     -2.46762326	     -7.78495438	     -1.27692652	      2.22527190	      0.95177823	      1.07957069	     24.50460870	      9.38510138	     -7.84954169	     43.67462462	      0.76226600	     17.84197906	      6.69014540	    -12.79745389	     -2.02440255	     86.45267145	      1.50888376	     -8.75908356
     11.59333333	     -2.05715736	     -7.92346647	     -1.32494152	      2.22290713	      0.94842610	      1.07969445	     23.66632692	      9.56376952	     -7.67329365	     44.83463731	      0.78251204	     19.44933616	      8.06797169	    -13.17841178	     -1.68720977	     88.47172853	      1.54412296	     -7.98470873
     11.60000000	     -1.51392758	     -7.97666653	     -1.43421973	      2.22031174	      0.94579590	      1.07983139	     22.53344577	      9.72348308	     -7.28611075	     45.71553671	      0.79788663	     20.69572215	      9.33226601	    -13.41535499	     -1.40194506	     90.21545379	      1.57455670	     -7.51118851
     11.60666667	     -2.07426717	     -8.07104829	     -1.19771847	      2.21772398	      0.94213162	      1.07954266	     22.48755345	      9.68368533	     -7.59610213	     46.39081810	      0.80967252	     22.07937402	     12.12335761	    -13.59143244	     -0.51484356	     92.02061396	      1.60606269	     -6.66066927
     11.61333333	     -1.71703267	     -8.12977596	     -1.14338068	      2.21520995	      0.94024109	      1.07943993	     21.21494178	      9.77367981	     -7.46136910	     46.65606695	      0.81430198	     23.22391659	     13.70488747	    -13.76043229	     -0.06298931	     93.30822323	      1.62853571	     -6.05405101
     11.62000000	     -1.53826638	     -8.17699395	     -1.02147360	      2.21273876	      0.93869476	      1.07928331	     20.00718805	      9.82380875	     -7.42178015	     46.68210788	      0.81475648	     24.16099330	     15.52556986	    -13.86536049	      0.47143626	     94.35299171	      1.64677036	     -5.49063825
     11.62666667	     -1.30807509	     -8.03542247	     -1.13762145	      2.21039598	      0.93786445	      1.07941675	     18.63218817	      9.79294689	     -7.01014794	     46.54782353	      0.81241278	     25.01204276	     17.11610379	    -13.78747003	      0.65475470	     95.00953598	      1.65822922	     -4.93276855
     11.63333333	     -1.18405301	     -7.94274368	     -1.16437637	      2.20827143	      0.93748538	      1.07948222	     17.22882319	      9.76983678	     -6.73791588	     46.13415376	      0.80519288	     25.69479117	     18.81327956	    -13.72104553	      0.91276975	     95.39916117	      1.66502947	     -4.33051197
